{
	"asset":{
		"generator":"Khronos glTF Blender I/O v4.2.69",
		"version":"2.0"
	},
	"scene":0,
	"scenes":[
		{
			"name":"Scene",
			"nodes":[
				0
			]
		}
	],
	"nodes":[
		{
			"mesh":0,
			"name":"Cube.002"
		}
	],
	"materials":[
		{
			"doubleSided":true,
			"emissiveFactor":[
				1,
				1,
				1
			],
			"emissiveTexture":{
				"index":0,
				"texCoord":1
			},
			"name":"texture",
			"pbrMetallicRoughness":{
				"baseColorFactor":[
					0,
					0,
					0,
					1
				]
			}
		}
	],
	"meshes":[
		{
			"name":"Cube.002",
			"primitives":[
				{
					"attributes":{
						"POSITION":0,
						"NORMAL":1,
						"TEXCOORD_0":2,
						"TEXCOORD_1":3
					},
					"indices":4,
					"material":0
				},
				{
					"attributes":{
						"POSITION":5,
						"NORMAL":6,
						"TEXCOORD_0":7,
						"TEXCOORD_1":8
					},
					"indices":9,
					"material":0
				}
			]
		}
	],
	"textures":[
		{
			"sampler":0,
			"source":0
		}
	],
	"images":[
		{
			"mimeType":"image/jpeg",
			"name":"phone_baseColor",
			"uri":"phone_baseColor.jpg"
		}
	],
	"accessors":[
		{
			"bufferView":0,
			"componentType":5126,
			"count":8393,
			"max":[
				0.5083547830581665,
				1.020214557647705,
				0.05867129564285278
			],
			"min":[
				-0.5149245858192444,
				-1.020214557647705,
				-0.0807415321469307
			],
			"type":"VEC3"
		},
		{
			"bufferView":1,
			"componentType":5126,
			"count":8393,
			"type":"VEC3"
		},
		{
			"bufferView":2,
			"componentType":5126,
			"count":8393,
			"type":"VEC2"
		},
		{
			"bufferView":3,
			"componentType":5126,
			"count":8393,
			"type":"VEC2"
		},
		{
			"bufferView":4,
			"componentType":5123,
			"count":33726,
			"type":"SCALAR"
		},
		{
			"bufferView":5,
			"componentType":5126,
			"count":336,
			"max":[
				0.4975784420967102,
				-0.6148830056190491,
				0.05815723538398743
			],
			"min":[
				-0.26709356904029846,
				-0.9681006073951721,
				-0.025041671469807625
			],
			"type":"VEC3"
		},
		{
			"bufferView":6,
			"componentType":5126,
			"count":336,
			"type":"VEC3"
		},
		{
			"bufferView":7,
			"componentType":5126,
			"count":336,
			"type":"VEC2"
		},
		{
			"bufferView":8,
			"componentType":5126,
			"count":336,
			"type":"VEC2"
		},
		{
			"bufferView":9,
			"componentType":5123,
			"count":1134,
			"type":"SCALAR"
		}
	],
	"bufferViews":[
		{
			"buffer":0,
			"byteLength":100716,
			"byteOffset":0,
			"target":34962
		},
		{
			"buffer":0,
			"byteLength":100716,
			"byteOffset":100716,
			"target":34962
		},
		{
			"buffer":0,
			"byteLength":67144,
			"byteOffset":201432,
			"target":34962
		},
		{
			"buffer":0,
			"byteLength":67144,
			"byteOffset":268576,
			"target":34962
		},
		{
			"buffer":0,
			"byteLength":67452,
			"byteOffset":335720,
			"target":34963
		},
		{
			"buffer":0,
			"byteLength":4032,
			"byteOffset":403172,
			"target":34962
		},
		{
			"buffer":0,
			"byteLength":4032,
			"byteOffset":407204,
			"target":34962
		},
		{
			"buffer":0,
			"byteLength":2688,
			"byteOffset":411236,
			"target":34962
		},
		{
			"buffer":0,
			"byteLength":2688,
			"byteOffset":413924,
			"target":34962
		},
		{
			"buffer":0,
			"byteLength":2268,
			"byteOffset":416612,
			"target":34963
		}
	],
	"samplers":[
		{
			"magFilter":9729,
			"minFilter":9987
		}
	],
	"buffers":[
		{
			"byteLength":418880,
			"uri":"Scene.bin"
		}
	]
}
