{
	"asset":{
		"generator":"Khronos glTF Blender I/O v4.0.44",
		"version":"2.0"
	},
	"extensionsUsed":[
		"KHR_materials_specular",
		"KHR_materials_ior",
		"EXT_texture_webp",
		"KHR_materials_emissive_strength"
	],
	"extensionsRequired":[
		"EXT_texture_webp"
	],
	"scene":0,
	"scenes":[
		{
			"name":"Scene",
			"nodes":[
				0
			]
		}
	],
	"nodes":[
		{
			"mesh":0,
			"name":"\u041a\u0443\u0431",
			"translation":[
				-0.006870627403259277,
				0.008120059967041016,
				-0.002375870943069458
			]
		}
	],
	"materials":[
		{
			"doubleSided":true,
			"name":"Body",
			"pbrMetallicRoughness":{}
		},
		{
			"doubleSided":true,
			"name":"Pre-Screen",
			"pbrMetallicRoughness":{}
		},
		{
			"doubleSided":true,
			"name":"Metal/iron",
			"pbrMetallicRoughness":{
				"baseColorFactor":[
					0.4969325065612793,
					0.4620765447616577,
					0.39675524830818176,
					1
				],
				"metallicFactor":0.9409090876579285,
				"roughnessFactor":0.09999999403953552
			}
		},
		{
			"doubleSided":true,
			"extensions":{
				"KHR_materials_specular":{
					"specularFactor":0
				},
				"KHR_materials_ior":{
					"ior":1.4500000476837158
				}
			},
			"name":"Inside",
			"pbrMetallicRoughness":{
				"baseColorFactor":[
					0,
					0,
					0,
					1
				],
				"metallicFactor":0
			}
		},
		{
			"doubleSided":true,
			"emissiveFactor":[
				1,
				1,
				1
			],
			"emissiveTexture":{
				"index":0,
				"texCoord":1
			},
			"extensions":{
				"KHR_materials_emissive_strength":{
					"emissiveStrength":2
				},
				"KHR_materials_specular":{
					"specularColorFactor":[
						1.399999976158142,
						1.399999976158142,
						1.399999976158142
					]
				},
				"KHR_materials_ior":{
					"ior":1.4500000476837158
				}
			},
			"name":"Screen Image",
			"pbrMetallicRoughness":{
				"baseColorTexture":{
					"index":1,
					"texCoord":1
				},
				"metallicFactor":0,
				"roughnessFactor":0
			}
		},
		{
			"doubleSided":true,
			"name":"Cam",
			"pbrMetallicRoughness":{}
		},
		{
			"doubleSided":true,
			"name":"Cam Back",
			"pbrMetallicRoughness":{}
		},
		{
			"doubleSided":true,
			"name":"Glass Front",
			"pbrMetallicRoughness":{}
		},
		{
			"doubleSided":true,
			"name":"Logo",
			"pbrMetallicRoughness":{}
		}
	],
	"meshes":[
		{
			"name":"\u041a\u0443\u0431",
			"primitives":[
				{
					"attributes":{
						"POSITION":0,
						"NORMAL":1,
						"TEXCOORD_0":2,
						"TEXCOORD_1":3,
						"TEXCOORD_2":4
					},
					"indices":5,
					"material":0
				},
				{
					"attributes":{
						"POSITION":6,
						"NORMAL":7,
						"TEXCOORD_0":8,
						"TEXCOORD_1":9,
						"TEXCOORD_2":10
					},
					"indices":11,
					"material":1
				},
				{
					"attributes":{
						"POSITION":12,
						"NORMAL":13,
						"TEXCOORD_0":14,
						"TEXCOORD_1":15,
						"TEXCOORD_2":16
					},
					"indices":17,
					"material":2
				},
				{
					"attributes":{
						"POSITION":18,
						"NORMAL":19,
						"TEXCOORD_0":20,
						"TEXCOORD_1":21,
						"TEXCOORD_2":22
					},
					"indices":23,
					"material":3
				},
				{
					"attributes":{
						"POSITION":24,
						"NORMAL":25,
						"TEXCOORD_0":26,
						"TEXCOORD_1":27,
						"TEXCOORD_2":28
					},
					"indices":29,
					"material":4
				},
				{
					"attributes":{
						"POSITION":30,
						"NORMAL":31,
						"TEXCOORD_0":32,
						"TEXCOORD_1":33,
						"TEXCOORD_2":34
					},
					"indices":35,
					"material":5
				},
				{
					"attributes":{
						"POSITION":36,
						"NORMAL":37,
						"TEXCOORD_0":38,
						"TEXCOORD_1":39,
						"TEXCOORD_2":40
					},
					"indices":41,
					"material":6
				},
				{
					"attributes":{
						"POSITION":42,
						"NORMAL":43,
						"TEXCOORD_0":44,
						"TEXCOORD_1":45,
						"TEXCOORD_2":46
					},
					"indices":47,
					"material":7
				},
				{
					"attributes":{
						"POSITION":48,
						"NORMAL":49,
						"TEXCOORD_0":50,
						"TEXCOORD_1":51,
						"TEXCOORD_2":52
					},
					"indices":53,
					"material":8
				}
			]
		}
	],
	"textures":[
		{
			"extensions":{
				"EXT_texture_webp":{
					"source":0
				}
			},
			"sampler":0
		},
		{
			"extensions":{
				"EXT_texture_webp":{
					"source":0
				}
			},
			"sampler":0
		}
	],
	"images":[
		{
			"mimeType":"image/webp",
			"name":"Iphone 15 Pro(Natural Titanium)",
			"uri":"textures/Iphone%2015%20ProNatural%20Titanium.webp"
		}
	],
	"accessors":[
		{
			"bufferView":0,
			"componentType":5126,
			"count":7450,
			"max":[
				0.07391087710857391,
				0.003940259106457233,
				0.035875365138053894
			],
			"min":[
				-0.07391088455915451,
				-0.00394026841968298,
				-0.035875383764505386
			],
			"type":"VEC3"
		},
		{
			"bufferView":1,
			"componentType":5126,
			"count":7450,
			"type":"VEC3"
		},
		{
			"bufferView":2,
			"componentType":5126,
			"count":7450,
			"type":"VEC2"
		},
		{
			"bufferView":3,
			"componentType":5126,
			"count":7450,
			"type":"VEC2"
		},
		{
			"bufferView":4,
			"componentType":5126,
			"count":7450,
			"type":"VEC2"
		},
		{
			"bufferView":5,
			"componentType":5123,
			"count":13392,
			"type":"SCALAR"
		},
		{
			"bufferView":6,
			"componentType":5126,
			"count":4615,
			"max":[
				0.07264918833971024,
				0.003940344322472811,
				0.034613676369190216
			],
			"min":[
				-0.07264919579029083,
				0.0032265151385217905,
				-0.03461369499564171
			],
			"type":"VEC3"
		},
		{
			"bufferView":7,
			"componentType":5126,
			"count":4615,
			"type":"VEC3"
		},
		{
			"bufferView":8,
			"componentType":5126,
			"count":4615,
			"type":"VEC2"
		},
		{
			"bufferView":9,
			"componentType":5126,
			"count":4615,
			"type":"VEC2"
		},
		{
			"bufferView":10,
			"componentType":5126,
			"count":4615,
			"type":"VEC2"
		},
		{
			"bufferView":11,
			"componentType":5123,
			"count":7083,
			"type":"SCALAR"
		},
		{
			"bufferView":12,
			"componentType":5126,
			"count":40762,
			"max":[
				0.07391087710857391,
				0.003940259106457233,
				0.03626400604844093
			],
			"min":[
				-0.07391088455915451,
				-0.00394026841968298,
				-0.03629419580101967
			],
			"type":"VEC3"
		},
		{
			"bufferView":13,
			"componentType":5126,
			"count":40762,
			"type":"VEC3"
		},
		{
			"bufferView":14,
			"componentType":5126,
			"count":40762,
			"type":"VEC2"
		},
		{
			"bufferView":15,
			"componentType":5126,
			"count":40762,
			"type":"VEC2"
		},
		{
			"bufferView":16,
			"componentType":5126,
			"count":40762,
			"type":"VEC2"
		},
		{
			"bufferView":17,
			"componentType":5123,
			"count":62874,
			"type":"SCALAR"
		},
		{
			"bufferView":18,
			"componentType":5126,
			"count":4622,
			"max":[
				0.07391087710857391,
				0.003887719474732876,
				0.03587516397237778
			],
			"min":[
				-0.07286900281906128,
				-0.0038877285551279783,
				-0.03483303263783455
			],
			"type":"VEC3"
		},
		{
			"bufferView":19,
			"componentType":5126,
			"count":4622,
			"type":"VEC3"
		},
		{
			"bufferView":20,
			"componentType":5126,
			"count":4622,
			"type":"VEC2"
		},
		{
			"bufferView":21,
			"componentType":5126,
			"count":4622,
			"type":"VEC2"
		},
		{
			"bufferView":22,
			"componentType":5126,
			"count":4622,
			"type":"VEC2"
		},
		{
			"bufferView":23,
			"componentType":5123,
			"count":7248,
			"type":"SCALAR"
		},
		{
			"bufferView":24,
			"componentType":5126,
			"count":190,
			"max":[
				0.07261240482330322,
				0.003940259106457233,
				0.0345768928527832
			],
			"min":[
				-0.07261241227388382,
				0.003937339410185814,
				-0.034576911479234695
			],
			"type":"VEC3"
		},
		{
			"bufferView":25,
			"componentType":5126,
			"count":190,
			"type":"VEC3"
		},
		{
			"bufferView":26,
			"componentType":5126,
			"count":190,
			"type":"VEC2"
		},
		{
			"bufferView":27,
			"componentType":5126,
			"count":190,
			"type":"VEC2"
		},
		{
			"bufferView":28,
			"componentType":5126,
			"count":190,
			"type":"VEC2"
		},
		{
			"bufferView":29,
			"componentType":5123,
			"count":570,
			"type":"SCALAR"
		},
		{
			"bufferView":30,
			"componentType":5126,
			"count":650,
			"max":[
				-0.06424717605113983,
				0.0026442634407430887,
				-0.005767975002527237
			],
			"min":[
				-0.06740760058164597,
				0.0022014814894646406,
				-0.008934642188251019
			],
			"type":"VEC3"
		},
		{
			"bufferView":31,
			"componentType":5126,
			"count":650,
			"type":"VEC3"
		},
		{
			"bufferView":32,
			"componentType":5126,
			"count":650,
			"type":"VEC2"
		},
		{
			"bufferView":33,
			"componentType":5126,
			"count":650,
			"type":"VEC2"
		},
		{
			"bufferView":34,
			"componentType":5126,
			"count":650,
			"type":"VEC2"
		},
		{
			"bufferView":35,
			"componentType":5123,
			"count":1044,
			"type":"SCALAR"
		},
		{
			"bufferView":36,
			"componentType":5126,
			"count":400,
			"max":[
				-0.06317809969186783,
				0.003940344322472811,
				-0.004696771968156099
			],
			"min":[
				-0.06847668439149857,
				0.0022014814894646406,
				-0.010005840100347996
			],
			"type":"VEC3"
		},
		{
			"bufferView":37,
			"componentType":5126,
			"count":400,
			"type":"VEC3"
		},
		{
			"bufferView":38,
			"componentType":5126,
			"count":400,
			"type":"VEC2"
		},
		{
			"bufferView":39,
			"componentType":5126,
			"count":400,
			"type":"VEC2"
		},
		{
			"bufferView":40,
			"componentType":5126,
			"count":400,
			"type":"VEC2"
		},
		{
			"bufferView":41,
			"componentType":5123,
			"count":600,
			"type":"SCALAR"
		},
		{
			"bufferView":42,
			"componentType":5126,
			"count":51,
			"max":[
				-0.06317809969186783,
				0.003940344322472811,
				-0.004696771968156099
			],
			"min":[
				-0.06847668439149857,
				0.003937338944524527,
				-0.010005840100347996
			],
			"type":"VEC3"
		},
		{
			"bufferView":43,
			"componentType":5126,
			"count":51,
			"type":"VEC3"
		},
		{
			"bufferView":44,
			"componentType":5126,
			"count":51,
			"type":"VEC2"
		},
		{
			"bufferView":45,
			"componentType":5126,
			"count":51,
			"type":"VEC2"
		},
		{
			"bufferView":46,
			"componentType":5126,
			"count":51,
			"type":"VEC2"
		},
		{
			"bufferView":47,
			"componentType":5123,
			"count":147,
			"type":"SCALAR"
		},
		{
			"bufferView":48,
			"componentType":5126,
			"count":230,
			"max":[
				0.00913586001843214,
				-0.003940261900424957,
				0.008554202504456043
			],
			"min":[
				-0.011112733744084835,
				-0.003940263297408819,
				-0.007918152026832104
			],
			"type":"VEC3"
		},
		{
			"bufferView":49,
			"componentType":5126,
			"count":230,
			"type":"VEC3"
		},
		{
			"bufferView":50,
			"componentType":5126,
			"count":230,
			"type":"VEC2"
		},
		{
			"bufferView":51,
			"componentType":5126,
			"count":230,
			"type":"VEC2"
		},
		{
			"bufferView":52,
			"componentType":5126,
			"count":230,
			"type":"VEC2"
		},
		{
			"bufferView":53,
			"componentType":5123,
			"count":678,
			"type":"SCALAR"
		}
	],
	"bufferViews":[
		{
			"buffer":0,
			"byteLength":89400,
			"byteOffset":0,
			"target":34962
		},
		{
			"buffer":0,
			"byteLength":89400,
			"byteOffset":89400,
			"target":34962
		},
		{
			"buffer":0,
			"byteLength":59600,
			"byteOffset":178800,
			"target":34962
		},
		{
			"buffer":0,
			"byteLength":59600,
			"byteOffset":238400,
			"target":34962
		},
		{
			"buffer":0,
			"byteLength":59600,
			"byteOffset":298000,
			"target":34962
		},
		{
			"buffer":0,
			"byteLength":26784,
			"byteOffset":357600,
			"target":34963
		},
		{
			"buffer":0,
			"byteLength":55380,
			"byteOffset":384384,
			"target":34962
		},
		{
			"buffer":0,
			"byteLength":55380,
			"byteOffset":439764,
			"target":34962
		},
		{
			"buffer":0,
			"byteLength":36920,
			"byteOffset":495144,
			"target":34962
		},
		{
			"buffer":0,
			"byteLength":36920,
			"byteOffset":532064,
			"target":34962
		},
		{
			"buffer":0,
			"byteLength":36920,
			"byteOffset":568984,
			"target":34962
		},
		{
			"buffer":0,
			"byteLength":14166,
			"byteOffset":605904,
			"target":34963
		},
		{
			"buffer":0,
			"byteLength":489144,
			"byteOffset":620072,
			"target":34962
		},
		{
			"buffer":0,
			"byteLength":489144,
			"byteOffset":1109216,
			"target":34962
		},
		{
			"buffer":0,
			"byteLength":326096,
			"byteOffset":1598360,
			"target":34962
		},
		{
			"buffer":0,
			"byteLength":326096,
			"byteOffset":1924456,
			"target":34962
		},
		{
			"buffer":0,
			"byteLength":326096,
			"byteOffset":2250552,
			"target":34962
		},
		{
			"buffer":0,
			"byteLength":125748,
			"byteOffset":2576648,
			"target":34963
		},
		{
			"buffer":0,
			"byteLength":55464,
			"byteOffset":2702396,
			"target":34962
		},
		{
			"buffer":0,
			"byteLength":55464,
			"byteOffset":2757860,
			"target":34962
		},
		{
			"buffer":0,
			"byteLength":36976,
			"byteOffset":2813324,
			"target":34962
		},
		{
			"buffer":0,
			"byteLength":36976,
			"byteOffset":2850300,
			"target":34962
		},
		{
			"buffer":0,
			"byteLength":36976,
			"byteOffset":2887276,
			"target":34962
		},
		{
			"buffer":0,
			"byteLength":14496,
			"byteOffset":2924252,
			"target":34963
		},
		{
			"buffer":0,
			"byteLength":2280,
			"byteOffset":2938748,
			"target":34962
		},
		{
			"buffer":0,
			"byteLength":2280,
			"byteOffset":2941028,
			"target":34962
		},
		{
			"buffer":0,
			"byteLength":1520,
			"byteOffset":2943308,
			"target":34962
		},
		{
			"buffer":0,
			"byteLength":1520,
			"byteOffset":2944828,
			"target":34962
		},
		{
			"buffer":0,
			"byteLength":1520,
			"byteOffset":2946348,
			"target":34962
		},
		{
			"buffer":0,
			"byteLength":1140,
			"byteOffset":2947868,
			"target":34963
		},
		{
			"buffer":0,
			"byteLength":7800,
			"byteOffset":2949008,
			"target":34962
		},
		{
			"buffer":0,
			"byteLength":7800,
			"byteOffset":2956808,
			"target":34962
		},
		{
			"buffer":0,
			"byteLength":5200,
			"byteOffset":2964608,
			"target":34962
		},
		{
			"buffer":0,
			"byteLength":5200,
			"byteOffset":2969808,
			"target":34962
		},
		{
			"buffer":0,
			"byteLength":5200,
			"byteOffset":2975008,
			"target":34962
		},
		{
			"buffer":0,
			"byteLength":2088,
			"byteOffset":2980208,
			"target":34963
		},
		{
			"buffer":0,
			"byteLength":4800,
			"byteOffset":2982296,
			"target":34962
		},
		{
			"buffer":0,
			"byteLength":4800,
			"byteOffset":2987096,
			"target":34962
		},
		{
			"buffer":0,
			"byteLength":3200,
			"byteOffset":2991896,
			"target":34962
		},
		{
			"buffer":0,
			"byteLength":3200,
			"byteOffset":2995096,
			"target":34962
		},
		{
			"buffer":0,
			"byteLength":3200,
			"byteOffset":2998296,
			"target":34962
		},
		{
			"buffer":0,
			"byteLength":1200,
			"byteOffset":3001496,
			"target":34963
		},
		{
			"buffer":0,
			"byteLength":612,
			"byteOffset":3002696,
			"target":34962
		},
		{
			"buffer":0,
			"byteLength":612,
			"byteOffset":3003308,
			"target":34962
		},
		{
			"buffer":0,
			"byteLength":408,
			"byteOffset":3003920,
			"target":34962
		},
		{
			"buffer":0,
			"byteLength":408,
			"byteOffset":3004328,
			"target":34962
		},
		{
			"buffer":0,
			"byteLength":408,
			"byteOffset":3004736,
			"target":34962
		},
		{
			"buffer":0,
			"byteLength":294,
			"byteOffset":3005144,
			"target":34963
		},
		{
			"buffer":0,
			"byteLength":2760,
			"byteOffset":3005440,
			"target":34962
		},
		{
			"buffer":0,
			"byteLength":2760,
			"byteOffset":3008200,
			"target":34962
		},
		{
			"buffer":0,
			"byteLength":1840,
			"byteOffset":3010960,
			"target":34962
		},
		{
			"buffer":0,
			"byteLength":1840,
			"byteOffset":3012800,
			"target":34962
		},
		{
			"buffer":0,
			"byteLength":1840,
			"byteOffset":3014640,
			"target":34962
		},
		{
			"buffer":0,
			"byteLength":1356,
			"byteOffset":3016480,
			"target":34963
		}
	],
	"samplers":[
		{
			"magFilter":9729,
			"minFilter":9987
		}
	],
	"buffers":[
		{
			"byteLength":3017836,
			"uri":"scene.bin"
		}
	]
}
