{
	"asset":{
		"copyright":"textures",
		"generator":"Khronos glTF Blender I/O v4.0.44",
		"version":"2.0"
	},
	"scene":0,
	"scenes":[
		{
			"name":"Scene",
			"nodes":[
				0
			]
		}
	],
	"nodes":[
		{
			"mesh":0,
			"name":"Cube",
			"rotation":[
				0,
				0,
				0.7071068286895752,
				0.7071068286895752
			],
			"scale":[
				3.8770203590393066,
				3.8770203590393066,
				3.8770203590393066
			]
		}
	],
	"materials":[
		{
			"doubleSided":true,
			"name":"Main_baseColor",
			"pbrMetallicRoughness":{
				"baseColorTexture":{
					"index":0,
					"texCoord":1
				},
				"metallicFactor":0,
				"roughnessFactor":0.5
			}
		}
	],
	"meshes":[
		{
			"name":"Cube",
			"primitives":[
				{
					"attributes":{
						"POSITION":0,
						"NORMAL":1,
						"TEXCOORD_0":2,
						"TEXCOORD_1":3
					},
					"indices":4,
					"material":0
				},
				{
					"attributes":{
						"POSITION":5,
						"NORMAL":6,
						"TEXCOORD_0":7,
						"TEXCOORD_1":8
					},
					"indices":9,
					"material":0
				},
				{
					"attributes":{
						"POSITION":10,
						"NORMAL":11,
						"TEXCOORD_0":12,
						"TEXCOORD_1":13
					},
					"indices":14,
					"material":0
				},
				{
					"attributes":{
						"POSITION":15,
						"NORMAL":16,
						"TEXCOORD_0":17,
						"TEXCOORD_1":18
					},
					"indices":19
				}
			]
		}
	],
	"textures":[
		{
			"sampler":0,
			"source":0
		}
	],
	"images":[
		{
			"mimeType":"image/png",
			"name":"Baking",
			"uri":"textures/Baking.png"
		}
	],
	"accessors":[
		{
			"bufferView":0,
			"componentType":5126,
			"count":19041,
			"max":[
				0.06578599661588669,
				0.0327799953520298,
				0.0037832711823284626
			],
			"min":[
				-0.06578599661588669,
				-0.0332036167383194,
				-0.004716028459370136
			],
			"type":"VEC3"
		},
		{
			"bufferView":1,
			"componentType":5126,
			"count":19041,
			"type":"VEC3"
		},
		{
			"bufferView":2,
			"componentType":5126,
			"count":19041,
			"type":"VEC2"
		},
		{
			"bufferView":3,
			"componentType":5126,
			"count":19041,
			"type":"VEC2"
		},
		{
			"bufferView":4,
			"componentType":5123,
			"count":31368,
			"type":"SCALAR"
		},
		{
			"bufferView":5,
			"componentType":5126,
			"count":1053,
			"max":[
				0.062529556453228,
				0.02889355458319187,
				0.0036849998869001865
			],
			"min":[
				-0.062529556453228,
				-0.02889355458319187,
				-0.0052064163610339165
			],
			"type":"VEC3"
		},
		{
			"bufferView":6,
			"componentType":5126,
			"count":1053,
			"type":"VEC3"
		},
		{
			"bufferView":7,
			"componentType":5126,
			"count":1053,
			"type":"VEC2"
		},
		{
			"bufferView":8,
			"componentType":5126,
			"count":1053,
			"type":"VEC2"
		},
		{
			"bufferView":9,
			"componentType":5123,
			"count":1965,
			"type":"SCALAR"
		},
		{
			"bufferView":10,
			"componentType":5126,
			"count":293,
			"max":[
				0.06453993171453476,
				0.030903931707143784,
				0.003750123782083392
			],
			"min":[
				-0.06453993171453476,
				-0.030903931707143784,
				0.0036849998869001865
			],
			"type":"VEC3"
		},
		{
			"bufferView":11,
			"componentType":5126,
			"count":293,
			"type":"VEC3"
		},
		{
			"bufferView":12,
			"componentType":5126,
			"count":293,
			"type":"VEC2"
		},
		{
			"bufferView":13,
			"componentType":5126,
			"count":293,
			"type":"VEC2"
		},
		{
			"bufferView":14,
			"componentType":5123,
			"count":513,
			"type":"SCALAR"
		},
		{
			"bufferView":15,
			"componentType":5126,
			"count":716,
			"max":[
				0.062425557523965836,
				0.0320851132273674,
				0.003750123782083392
			],
			"min":[
				0.03964918851852417,
				-0.017222855240106583,
				-0.0016147512942552567
			],
			"type":"VEC3"
		},
		{
			"bufferView":16,
			"componentType":5126,
			"count":716,
			"type":"VEC3"
		},
		{
			"bufferView":17,
			"componentType":5126,
			"count":716,
			"type":"VEC2"
		},
		{
			"bufferView":18,
			"componentType":5126,
			"count":716,
			"type":"VEC2"
		},
		{
			"bufferView":19,
			"componentType":5123,
			"count":1134,
			"type":"SCALAR"
		}
	],
	"bufferViews":[
		{
			"buffer":0,
			"byteLength":228492,
			"byteOffset":0,
			"target":34962
		},
		{
			"buffer":0,
			"byteLength":228492,
			"byteOffset":228492,
			"target":34962
		},
		{
			"buffer":0,
			"byteLength":152328,
			"byteOffset":456984,
			"target":34962
		},
		{
			"buffer":0,
			"byteLength":152328,
			"byteOffset":609312,
			"target":34962
		},
		{
			"buffer":0,
			"byteLength":62736,
			"byteOffset":761640,
			"target":34963
		},
		{
			"buffer":0,
			"byteLength":12636,
			"byteOffset":824376,
			"target":34962
		},
		{
			"buffer":0,
			"byteLength":12636,
			"byteOffset":837012,
			"target":34962
		},
		{
			"buffer":0,
			"byteLength":8424,
			"byteOffset":849648,
			"target":34962
		},
		{
			"buffer":0,
			"byteLength":8424,
			"byteOffset":858072,
			"target":34962
		},
		{
			"buffer":0,
			"byteLength":3930,
			"byteOffset":866496,
			"target":34963
		},
		{
			"buffer":0,
			"byteLength":3516,
			"byteOffset":870428,
			"target":34962
		},
		{
			"buffer":0,
			"byteLength":3516,
			"byteOffset":873944,
			"target":34962
		},
		{
			"buffer":0,
			"byteLength":2344,
			"byteOffset":877460,
			"target":34962
		},
		{
			"buffer":0,
			"byteLength":2344,
			"byteOffset":879804,
			"target":34962
		},
		{
			"buffer":0,
			"byteLength":1026,
			"byteOffset":882148,
			"target":34963
		},
		{
			"buffer":0,
			"byteLength":8592,
			"byteOffset":883176,
			"target":34962
		},
		{
			"buffer":0,
			"byteLength":8592,
			"byteOffset":891768,
			"target":34962
		},
		{
			"buffer":0,
			"byteLength":5728,
			"byteOffset":900360,
			"target":34962
		},
		{
			"buffer":0,
			"byteLength":5728,
			"byteOffset":906088,
			"target":34962
		},
		{
			"buffer":0,
			"byteLength":2268,
			"byteOffset":911816,
			"target":34963
		}
	],
	"samplers":[
		{
			"magFilter":9729,
			"minFilter":9987
		}
	],
	"buffers":[
		{
			"byteLength":914084,
			"uri":"scene.bin"
		}
	]
}
