{
	"asset":{
		"generator":"Khronos glTF Blender I/O v4.0.44",
		"version":"2.0"
	},
	"extensionsUsed":[
		"KHR_materials_specular",
		"KHR_materials_ior",
		"KHR_lights_punctual"
	],
	"extensionsRequired":[
		"KHR_lights_punctual"
	],
	"extensions":{
		"KHR_lights_punctual":{
			"lights":[
				{
					"color":[
						1,
						1,
						1
					],
					"intensity":3415,
					"type":"directional",
					"name":"Sun.001"
				}
			]
		}
	},
	"scene":0,
	"scenes":[
		{
			"name":"Scene",
			"nodes":[
				0,
				1
			]
		}
	],
	"nodes":[
		{
			"mesh":0,
			"name":"Plane004",
			"scale":[
				0.0021638006437569857,
				0.0021638006437569857,
				0.0021638006437569857
			],
			"translation":[
				0.017201794311404228,
				0.005947653669863939,
				-0.0063849142752587795
			]
		},
		{
			"extensions":{
				"KHR_lights_punctual":{
					"light":0
				}
			},
			"name":"Sun",
			"rotation":[
				-0.8005084991455078,
				0.023518478497862816,
				-0.023518480360507965,
				0.5983978509902954
			],
			"translation":[
				-0.2140546590089798,
				0.8604166507720947,
				-0.03849903121590614
			]
		}
	],
	"materials":[
		{
			"doubleSided":true,
			"extensions":{
				"KHR_materials_specular":{
					"specularFactor":0
				},
				"KHR_materials_ior":{
					"ior":1.4500000476837158
				}
			},
			"name":"Baked",
			"normalTexture":{
				"index":0
			},
			"pbrMetallicRoughness":{
				"baseColorTexture":{
					"index":1
				},
				"metallicFactor":0,
				"roughnessFactor":0.8327272534370422
			}
		}
	],
	"meshes":[
		{
			"name":"Mesh",
			"primitives":[
				{
					"attributes":{
						"POSITION":0,
						"NORMAL":1,
						"TEXCOORD_0":2,
						"TEXCOORD_1":3
					},
					"indices":4,
					"material":0
				}
			]
		}
	],
	"textures":[
		{
			"sampler":0,
			"source":0
		},
		{
			"sampler":0,
			"source":1
		}
	],
	"images":[
		{
			"mimeType":"image/png",
			"name":"normal",
			"uri":"textures/normal.png"
		},
		{
			"mimeType":"image/png",
			"name":"baseCollor",
			"uri":"textures/baseCollor.png"
		}
	],
	"accessors":[
		{
			"bufferView":0,
			"componentType":5126,
			"count":44821,
			"max":[
				196.6812286376953,
				17.108234405517578,
				89.22761535644531
			],
			"min":[
				-212.58084106445312,
				-22.605648040771484,
				-83.32604217529297
			],
			"type":"VEC3"
		},
		{
			"bufferView":1,
			"componentType":5126,
			"count":44821,
			"type":"VEC3"
		},
		{
			"bufferView":2,
			"componentType":5126,
			"count":44821,
			"type":"VEC2"
		},
		{
			"bufferView":3,
			"componentType":5126,
			"count":44821,
			"type":"VEC2"
		},
		{
			"bufferView":4,
			"componentType":5123,
			"count":214197,
			"type":"SCALAR"
		}
	],
	"bufferViews":[
		{
			"buffer":0,
			"byteLength":537852,
			"byteOffset":0,
			"target":34962
		},
		{
			"buffer":0,
			"byteLength":537852,
			"byteOffset":537852,
			"target":34962
		},
		{
			"buffer":0,
			"byteLength":358568,
			"byteOffset":1075704,
			"target":34962
		},
		{
			"buffer":0,
			"byteLength":358568,
			"byteOffset":1434272,
			"target":34962
		},
		{
			"buffer":0,
			"byteLength":428394,
			"byteOffset":1792840,
			"target":34963
		}
	],
	"samplers":[
		{
			"magFilter":9729,
			"minFilter":9987
		}
	],
	"buffers":[
		{
			"byteLength":2221236,
			"uri":"scene.bin"
		}
	]
}
