{
	"asset":{
		"generator":"Khronos glTF Blender I/O v4.0.44",
		"version":"2.0"
	},
	"scene":0,
	"scenes":[
		{
			"name":"Scene",
			"nodes":[
				0
			]
		}
	],
	"nodes":[
		{
			"mesh":0,
			"name":"Cube.001",
			"rotation":[
				0,
				0,
				0.7071068286895752,
				0.7071067094802856
			],
			"scale":[
				3.877020835876465,
				3.877020835876465,
				3.8770203590393066
			]
		}
	],
	"materials":[
		{
			"doubleSided":true,
			"name":"Main_baseColor.001",
			"normalTexture":{
				"index":0
			},
			"pbrMetallicRoughness":{
				"baseColorTexture":{
					"index":1
				},
				"metallicFactor":0,
				"roughnessFactor":0.5
			}
		}
	],
	"meshes":[
		{
			"name":"Cube.001",
			"primitives":[
				{
					"attributes":{
						"POSITION":0,
						"NORMAL":1,
						"TEXCOORD_0":2
					},
					"indices":3,
					"material":0
				}
			]
		}
	],
	"textures":[
		{
			"sampler":0,
			"source":0
		},
		{
			"sampler":0,
			"source":1
		}
	],
	"images":[
		{
			"mimeType":"image/png",
			"name":"Bake",
			"uri":"textures/Bake.png"
		},
		{
			"mimeType":"image/png",
			"name":"Baking",
			"uri":"textures/Baking.png"
		}
	],
	"accessors":[
		{
			"bufferView":0,
			"componentType":5126,
			"count":23838,
			"max":[
				0.06578599661588669,
				0.0327799953520298,
				0.0037832711823284626
			],
			"min":[
				-0.06578599661588669,
				-0.0332036167383194,
				-0.0052064163610339165
			],
			"type":"VEC3"
		},
		{
			"bufferView":1,
			"componentType":5126,
			"count":23838,
			"type":"VEC3"
		},
		{
			"bufferView":2,
			"componentType":5126,
			"count":23838,
			"type":"VEC2"
		},
		{
			"bufferView":3,
			"componentType":5123,
			"count":34980,
			"type":"SCALAR"
		}
	],
	"bufferViews":[
		{
			"buffer":0,
			"byteLength":286056,
			"byteOffset":0,
			"target":34962
		},
		{
			"buffer":0,
			"byteLength":286056,
			"byteOffset":286056,
			"target":34962
		},
		{
			"buffer":0,
			"byteLength":190704,
			"byteOffset":572112,
			"target":34962
		},
		{
			"buffer":0,
			"byteLength":69960,
			"byteOffset":762816,
			"target":34963
		}
	],
	"samplers":[
		{
			"magFilter":9729,
			"minFilter":9987
		}
	],
	"buffers":[
		{
			"byteLength":832776,
			"uri":"scene.bin"
		}
	]
}
