{
	"asset":{
		"generator":"Khronos glTF Blender I/O v4.0.44",
		"version":"2.0"
	},
	"extensionsUsed":[
		"KHR_materials_specular",
		"KHR_materials_ior"
	],
	"scene":0,
	"scenes":[
		{
			"name":"Scene",
			"nodes":[
				0
			]
		}
	],
	"nodes":[
		{
			"mesh":0,
			"name":"Phone XR",
			"rotation":[
				0,
				-0.7071068286895752,
				0.7071068286895752,
				3.0908619663705394e-08
			]
		}
	],
	"materials":[
		{
			"doubleSided":true,
			"extensions":{
				"KHR_materials_specular":{
					"specularFactor":0
				},
				"KHR_materials_ior":{
					"ior":1.4500000476837158
				}
			},
			"name":"Main",
			"normalTexture":{
				"index":0
			},
			"pbrMetallicRoughness":{
				"baseColorTexture":{
					"index":1
				},
				"metallicFactor":0,
				"roughnessFactor":0.8327272534370422
			}
		}
	],
	"meshes":[
		{
			"name":"XR_pre_UV_Phone_edit:001_Plane:002.003",
			"primitives":[
				{
					"attributes":{
						"POSITION":0,
						"NORMAL":1,
						"TEXCOORD_0":2
					},
					"indices":3,
					"material":0
				}
			]
		}
	],
	"textures":[
		{
			"sampler":0,
			"source":0
		},
		{
			"sampler":0,
			"source":1
		}
	],
	"images":[
		{
			"mimeType":"image/png",
			"name":"Baked",
			"uri":"textures/Baked.png"
		},
		{
			"mimeType":"image/png",
			"name":"Main_baseColor",
			"uri":"textures/Main_baseColor.png"
		}
	],
	"accessors":[
		{
			"bufferView":0,
			"componentType":5126,
			"count":9286,
			"max":[
				0.4203133285045624,
				0.009166352450847626,
				0.8599507212638855
			],
			"min":[
				-0.41727614402770996,
				-0.066585972905159,
				-0.7707885503768921
			],
			"type":"VEC3"
		},
		{
			"bufferView":1,
			"componentType":5126,
			"count":9286,
			"type":"VEC3"
		},
		{
			"bufferView":2,
			"componentType":5126,
			"count":9286,
			"type":"VEC2"
		},
		{
			"bufferView":3,
			"componentType":5123,
			"count":35160,
			"type":"SCALAR"
		}
	],
	"bufferViews":[
		{
			"buffer":0,
			"byteLength":111432,
			"byteOffset":0,
			"target":34962
		},
		{
			"buffer":0,
			"byteLength":111432,
			"byteOffset":111432,
			"target":34962
		},
		{
			"buffer":0,
			"byteLength":74288,
			"byteOffset":222864,
			"target":34962
		},
		{
			"buffer":0,
			"byteLength":70320,
			"byteOffset":297152,
			"target":34963
		}
	],
	"samplers":[
		{
			"magFilter":9729,
			"minFilter":9987
		}
	],
	"buffers":[
		{
			"byteLength":367472,
			"uri":"scene.bin"
		}
	]
}
