{
	"asset":{
		"generator":"Khronos glTF Blender I/O v4.0.44",
		"version":"2.0"
	},
	"extensionsUsed":[
		"KHR_materials_emissive_strength",
		"KHR_materials_specular",
		"KHR_materials_ior"
	],
	"scene":0,
	"scenes":[
		{
			"name":"Scene",
			"nodes":[
				0
			]
		}
	],
	"nodes":[
		{
			"mesh":0,
			"name":"Plane004",
			"scale":[
				0.0021638006437569857,
				0.0021638006437569857,
				0.0021638006437569857
			],
			"translation":[
				0.017201794311404228,
				0.005947653669863939,
				-0.0063849142752587795
			]
		}
	],
	"materials":[
		{
			"doubleSided":true,
			"emissiveFactor":[
				1,
				1,
				1
			],
			"emissiveTexture":{
				"index":0
			},
			"extensions":{
				"KHR_materials_emissive_strength":{
					"emissiveStrength":20
				},
				"KHR_materials_specular":{
					"specularFactor":0
				},
				"KHR_materials_ior":{
					"ior":1.4500000476837158
				}
			},
			"name":"Baked",
			"normalTexture":{
				"index":1
			},
			"pbrMetallicRoughness":{
				"baseColorTexture":{
					"index":2
				},
				"metallicRoughnessTexture":{
					"index":3
				}
			}
		}
	],
	"meshes":[
		{
			"name":"Mesh",
			"primitives":[
				{
					"attributes":{
						"POSITION":0,
						"NORMAL":1,
						"TEXCOORD_0":2
					},
					"indices":3,
					"material":0
				}
			]
		}
	],
	"textures":[
		{
			"sampler":0,
			"source":0
		},
		{
			"sampler":0,
			"source":1
		},
		{
			"sampler":0,
			"source":2
		},
		{
			"sampler":0,
			"source":3
		}
	],
	"images":[
		{
			"mimeType":"image/jpeg",
			"name":"keyboard_13 - Default_Emissive",
			"uri":"textures/keyboard_13%20-%20Default_Emissive.jpg"
		},
		{
			"mimeType":"image/jpeg",
			"name":"keyboard_13 - Default_Normal",
			"uri":"textures/keyboard_13%20-%20Default_Normal.jpg"
		},
		{
			"mimeType":"image/jpeg",
			"name":"keyboard_13 - Default_BaseColor",
			"uri":"textures/keyboard_13%20-%20Default_BaseColor.jpg"
		},
		{
			"mimeType":"image/png",
			"name":"keyboard_13 - Default_Metallic-keyboard_13 - Default_Roughness",
			"uri":"textures/keyboard_13%20-%20Default_Metallic-keyboard_13%20-%20Default_Roughness.png"
		}
	],
	"accessors":[
		{
			"bufferView":0,
			"componentType":5126,
			"count":44821,
			"max":[
				196.6812286376953,
				17.108234405517578,
				89.22761535644531
			],
			"min":[
				-212.58084106445312,
				-22.605648040771484,
				-83.32604217529297
			],
			"type":"VEC3"
		},
		{
			"bufferView":1,
			"componentType":5126,
			"count":44821,
			"type":"VEC3"
		},
		{
			"bufferView":2,
			"componentType":5126,
			"count":44821,
			"type":"VEC2"
		},
		{
			"bufferView":3,
			"componentType":5123,
			"count":214197,
			"type":"SCALAR"
		}
	],
	"bufferViews":[
		{
			"buffer":0,
			"byteLength":537852,
			"byteOffset":0,
			"target":34962
		},
		{
			"buffer":0,
			"byteLength":537852,
			"byteOffset":537852,
			"target":34962
		},
		{
			"buffer":0,
			"byteLength":358568,
			"byteOffset":1075704,
			"target":34962
		},
		{
			"buffer":0,
			"byteLength":428394,
			"byteOffset":1434272,
			"target":34963
		}
	],
	"samplers":[
		{
			"magFilter":9729,
			"minFilter":9987
		}
	],
	"buffers":[
		{
			"byteLength":1862668,
			"uri":"scene.bin"
		}
	]
}
